# xmcd CD database file
#
# Track frame offsets:
#	150
#	20365
#	37500
#
# Disc length: 769 seconds
#
# Revision: 0
# Processed by: cddbd v1.5PL3 Copyright (c) Steve Scherf et al.
# Submitted via: CDex 1.50beta9
#
DISCID=1102ff03
DTITLE=T&Cボンバー - HEY！真夏の蜃気楼
DYEAR=2000
DGENRE=JPop
TTITLE0=HEY！真夏の蜃気楼
TTITLE1=かわいい男性
TTITLE2=HEY！真夏の蜃気楼(Instrumental)
EXTD=YEAR: 2000
EXTT0=
EXTT1=
EXTT2=
PLAYORDER=
